<svg width="0" height="0" class="hidden">
  <symbol aria-hidden="true" data-prefix="fas" data-icon="exclamation-triangle" xmlns="http://www.w3.org/2000/svg" viewBox="0 0 576 512" id="alert">
    <path fill="currentColor" d="M569.517 440.013C587.975 472.007 564.806 512 527.94 512H48.054c-36.937 0-59.999-40.055-41.577-71.987L246.423 23.985c18.467-32.009 64.72-31.951 83.154 0l239.94 416.028zM288 354c-25.405 0-46 20.595-46 46s20.595 46 46 46 46-20.595 46-46-20.595-46-46-46zm-43.673-165.346l7.418 136c.347 6.364 5.609 11.346 11.982 11.346h48.546c6.373 0 11.635-4.982 11.982-11.346l7.418-136c.375-6.874-5.098-12.654-11.982-12.654h-63.383c-6.884 0-12.356 5.78-11.981 12.654z"></path>
  </symbol>
  <symbol aria-hidden="true" data-prefix="far" data-icon="check-circle" xmlns="http://www.w3.org/2000/svg" viewBox="0 0 512 512" id="check">
    <path fill="currentColor" d="M256 8C119.033 8 8 119.033 8 256s111.033 248 248 248 248-111.033 248-248S392.967 8 256 8zm0 48c110.532 0 200 89.451 200 200 0 110.532-89.451 200-200 200-110.532 0-200-89.451-200-200 0-110.532 89.451-200 200-200m140.204 130.267l-22.536-22.718c-4.667-4.705-12.265-4.736-16.97-.068L215.346 303.697l-59.792-60.277c-4.667-4.705-12.265-4.736-16.97-.069l-22.719 22.536c-4.705 4.667-4.736 12.265-.068 16.971l90.781 91.516c4.667 4.705 12.265 4.736 16.97.068l172.589-171.204c4.704-4.668 4.734-12.266.067-16.971z"></path>
  </symbol>
  <symbol aria-hidden="true" data-prefix="far" data-icon="times-circle" xmlns="http://www.w3.org/2000/svg" viewBox="0 0 512 512" id="error">
    <path fill="currentColor" d="M256 8C119 8 8 119 8 256s111 248 248 248 248-111 248-248S393 8 256 8zm0 448c-110.5 0-200-89.5-200-200S145.5 56 256 56s200 89.5 200 200-89.5 200-200 200zm101.8-262.2L295.6 256l62.2 62.2c4.7 4.7 4.7 12.3 0 17l-22.6 22.6c-4.7 4.7-12.3 4.7-17 0L256 295.6l-62.2 62.2c-4.7 4.7-12.3 4.7-17 0l-22.6-22.6c-4.7-4.7-4.7-12.3 0-17l62.2-62.2-62.2-62.2c-4.7-4.7-4.7-12.3 0-17l22.6-22.6c4.7-4.7 12.3-4.7 17 0l62.2 62.2 62.2-62.2c4.7-4.7 12.3-4.7 17 0l22.6 22.6c4.7 4.7 4.7 12.3 0 17z"></path>
  </symbol>
  <symbol aria-hidden="true" data-prefix="fas" data-icon="eye" xmlns="http://www.w3.org/2000/svg" viewBox="0 0 576 512" id="eye">
    <path fill="currentColor" d="M572.52 241.4C518.29 135.59 410.93 64 288 64S57.68 135.64 3.48 241.41a32.35 32.35 0 000 29.19C57.71 376.41 165.07 448 288 448s230.32-71.64 284.52-177.41a32.35 32.35 0 000-29.19zM288 400a144 144 0 11144-144 143.93 143.93 0 01-144 144zm0-240a95.31 95.31 0 00-25.31 3.79 47.85 47.85 0 01-66.9 66.9A95.78 95.78 0 10288 160z"></path>
  </symbol>
  <symbol aria-hidden="true" data-prefix="fas" data-icon="eye-slash" xmlns="http://www.w3.org/2000/svg" viewBox="0 0 640 512" id="eye-slash">
    <path fill="currentColor" d="M320 400c-75.85 0-137.25-58.71-142.9-133.11L72.2 185.82c-13.79 17.3-26.48 35.59-36.72 55.59a32.35 32.35 0 000 29.19C89.71 376.41 197.07 448 320 448c26.91 0 52.87-4 77.89-10.46L346 397.39a144.13 144.13 0 01-26 2.61zm313.82 58.1l-110.55-85.44a331.25 331.25 0 0081.25-102.07 32.35 32.35 0 000-29.19C550.29 135.59 442.93 64 320 64a308.15 308.15 0 00-147.32 37.7L45.46 3.37A16 16 0 0023 6.18L3.37 31.45A16 16 0 006.18 53.9l588.36 454.73a16 16 0 0022.46-2.81l19.64-25.27a16 16 0 00-2.82-22.45zm-183.72-142l-39.3-30.38A94.75 94.75 0 00416 256a94.76 94.76 0 00-121.31-92.21A47.65 47.65 0 01304 192a46.64 46.64 0 01-1.54 10l-73.61-56.89A142.31 142.31 0 01320 112a143.92 143.92 0 01144 144c0 21.63-5.29 41.79-13.9 60.11z"></path>
  </symbol>
  <symbol aria-hidden="true" data-prefix="fas" data-icon="lock" xmlns="http://www.w3.org/2000/svg" viewBox="0 0 448 512" id="lock-solid">
    <path fill="currentColor" d="M400 224h-24v-72C376 68.2 307.8 0 224 0S72 68.2 72 152v72H48c-26.5 0-48 21.5-48 48v192c0 26.5 21.5 48 48 48h352c26.5 0 48-21.5 48-48V272c0-26.5-21.5-48-48-48zm-104 0H152v-72c0-39.7 32.3-72 72-72s72 32.3 72 72v72z"></path>
  </symbol>
  <symbol aria-hidden="true" data-prefix="fas" data-icon="pause-circle" xmlns="http://www.w3.org/2000/svg" viewBox="0 0 512 512" id="pause-circle-solid">
    <path fill="currentColor" d="M256 8C119 8 8 119 8 256s111 248 248 248 248-111 248-248S393 8 256 8zm-16 328c0 8.8-7.2 16-16 16h-48c-8.8 0-16-7.2-16-16V176c0-8.8 7.2-16 16-16h48c8.8 0 16 7.2 16 16v160zm112 0c0 8.8-7.2 16-16 16h-48c-8.8 0-16-7.2-16-16V176c0-8.8 7.2-16 16-16h48c8.8 0 16 7.2 16 16v160z"></path>
  </symbol>
  <symbol aria-hidden="true" data-prefix="fas" data-icon="play-circle" xmlns="http://www.w3.org/2000/svg" viewBox="0 0 512 512" id="play-circle-solid">
    <path fill="currentColor" d="M256 8C119 8 8 119 8 256s111 248 248 248 248-111 248-248S393 8 256 8zm115.7 272l-176 101c-15.8 8.8-35.7-2.5-35.7-21V152c0-18.4 19.8-29.8 35.7-21l176 107c16.4 9.2 16.4 32.9 0 42z"></path>
  </symbol>
  <symbol aria-hidden="true" data-prefix="fas" data-icon="plus-circle" xmlns="http://www.w3.org/2000/svg" viewBox="0 0 512 512" id="plus-circle-solid">
    <path fill="currentColor" d="M256 8C119 8 8 119 8 256s111 248 248 248 248-111 248-248S393 8 256 8zm144 276c0 6.6-5.4 12-12 12h-92v92c0 6.6-5.4 12-12 12h-56c-6.6 0-12-5.4-12-12v-92h-92c-6.6 0-12-5.4-12-12v-56c0-6.6 5.4-12 12-12h92v-92c0-6.6 5.4-12 12-12h56c6.6 0 12 5.4 12 12v92h92c6.6 0 12 5.4 12 12v56z"></path>
  </symbol>
  <symbol aria-hidden="true" data-prefix="fas" data-icon="search" xmlns="http://www.w3.org/2000/svg" viewBox="0 0 512 512" id="search-solid">
    <path fill="currentColor" d="M505 442.7L405.3 343c-4.5-4.5-10.6-7-17-7H372c27.6-35.3 44-79.7 44-128C416 93.1 322.9 0 208 0S0 93.1 0 208s93.1 208 208 208c48.3 0 92.7-16.4 128-44v16.3c0 6.4 2.5 12.5 7 17l99.7 99.7c9.4 9.4 24.6 9.4 33.9 0l28.3-28.3c9.4-9.4 9.4-24.6.1-34zM208 336c-70.7 0-128-57.2-128-128 0-70.7 57.2-128 128-128 70.7 0 128 57.2 128 128 0 70.7-57.2 128-128 128z"></path>
  </symbol>
  <symbol aria-hidden="true" data-prefix="fas" data-icon="times" xmlns="http://www.w3.org/2000/svg" viewBox="0 0 352 512" id="times">
    <path fill="currentColor" d="M242.72 256l100.07-100.07c12.28-12.28 12.28-32.19 0-44.48l-22.24-22.24c-12.28-12.28-32.19-12.28-44.48 0L176 189.28 75.93 89.21c-12.28-12.28-32.19-12.28-44.48 0L9.21 111.45c-12.28 12.28-12.28 32.19 0 44.48L109.28 256 9.21 356.07c-12.28 12.28-12.28 32.19 0 44.48l22.24 22.24c12.28 12.28 32.2 12.28 44.48 0L176 322.72l100.07 100.07c12.28 12.28 32.2 12.28 44.48 0l22.24-22.24c12.28-12.28 12.28-32.19 0-44.48L242.72 256z"></path>
  </symbol>
  <symbol aria-hidden="true" data-prefix="fas" data-icon="unlock-alt" xmlns="http://www.w3.org/2000/svg" viewBox="0 0 448 512" id="unlock-alt-solid">
    <path fill="currentColor" d="M400 256H152V152.9c0-39.6 31.7-72.5 71.3-72.9 40-.4 72.7 32.1 72.7 72v16c0 13.3 10.7 24 24 24h32c13.3 0 24-10.7 24-24v-16C376 68 307.5-.3 223.5 0 139.5.3 72 69.5 72 153.5V256H48c-26.5 0-48 21.5-48 48v160c0 26.5 21.5 48 48 48h352c26.5 0 48-21.5 48-48V304c0-26.5-21.5-48-48-48zM264 408c0 22.1-17.9 40-40 40s-40-17.9-40-40v-48c0-22.1 17.9-40 40-40s40 17.9 40 40v48z"></path>
  </symbol>
  <symbol aria-hidden="true" data-prefix="fas" data-icon="user-astronaut" xmlns="http://www.w3.org/2000/svg" viewBox="0 0 448 512" id="user-astronaut-solid">
    <path fill="currentColor" d="M64 224h13.5c24.7 56.5 80.9 96 146.5 96s121.8-39.5 146.5-96H384c8.8 0 16-7.2 16-16v-96c0-8.8-7.2-16-16-16h-13.5C345.8 39.5 289.6 0 224 0S102.2 39.5 77.5 96H64c-8.8 0-16 7.2-16 16v96c0 8.8 7.2 16 16 16zm40-88c0-22.1 21.5-40 48-40h144c26.5 0 48 17.9 48 40v24c0 53-43 96-96 96h-48c-53 0-96-43-96-96v-24zm72 72l12-36 36-12-36-12-12-36-12 36-36 12 36 12 12 36zm151.6 113.4C297.7 340.7 262.2 352 224 352s-73.7-11.3-103.6-30.6C52.9 328.5 0 385 0 454.4v9.6c0 26.5 21.5 48 48 48h80v-64c0-17.7 14.3-32 32-32h128c17.7 0 32 14.3 32 32v64h80c26.5 0 48-21.5 48-48v-9.6c0-69.4-52.9-125.9-120.4-133zM272 448c-8.8 0-16 7.2-16 16s7.2 16 16 16 16-7.2 16-16-7.2-16-16-16zm-96 0c-8.8 0-16 7.2-16 16v48h32v-48c0-8.8-7.2-16-16-16z"></path>
  </symbol>
</svg>